# xmcd
#
# Track frame offsets:
#	200
#	19452
#	40817
#	57240
#
# Disc length: 1120 seconds
#
# Revision: 1
# Processed by: cddbd v1.5.2PL0 Copyright (c) Steve Scherf et al.
# Submitted via: audiograbber 1.83.01
#
DISCID=2f045e04
DTITLE=Mary J Blige - You Remind Me
DYEAR=1992
DGENRE=R&B
TTITLE0=You Remind Me (Album Version)
TTITLE1=You Remind Me (Bentley's)
TTITLE2=Leave A Message
TTITLE3=You Remind Me (Daddy Hip Hop)
EXTD=
EXTT0=
EXTT1=
EXTT2=
EXTT3=
PLAYORDER=
